<svg viewBox="0 0 121 24.727272727272727" xmlns="http://www.w3.org/2000/svg" style="max-height: 500px" width="121" height="24.727272727272727"><g fill-rule="evenodd" fill="none"><path d="M105.44 11.666c-.338.057-.792.086-1.586.086-.424 0-.96 0-1.357-.03.168.624.338 2.606.338 4.107v3.567c0 .623-.027.821-.112.878-.794.453-2.493.68-3.823.68-1.983 0-5.125-.595-7.389-3.03-1.415-1.416-2.605-3.766-2.605-7.022 0-2.945 1.217-5.294 2.774-6.654 1.671-1.472 3.88-2.066 6.088-2.066 4.445 0 6.58 1.286 7.231 2.05 0-.991.198-2.35.311-2.775-.678-.141-3.21-.946-6.666-.946-1.925 0-5.208.084-8.124 2.151-2.096 1.416-4.39 4.192-4.39 8.806 0 3.285 1.248 5.918 2.831 7.617 2.237 2.462 5.692 3.624 9.26 3.624 2.434 0 5.21-.396 7.079-1.246-.03-.283-.03-.764-.03-2.01V16.48c0-1.897.085-4.106.17-4.814M45.423 11.485c-.379.262-.844.35-1.69.35-1.543 0-3-.088-3.582-.205-.058-.028-.087-.087-.087-.262v-9c0-.116 0-.174.117-.204.407-.087 1.222-.116 2.126-.116 3.349 0 5.33 1.894 5.33 4.98 0 2.097-1.05 3.612-2.214 4.457zm7.164 8.62c-2.009-2.155-4.135-5.096-6-7.572 2.36-1.63 3.554-3.67 3.554-6.204 0-2.097-1.077-3.815-2.592-4.776C46.297.766 44.433.504 42.452.504c-1.02 0-3.262.117-3.845.117-.437 0-.815 0-1.34-.058.292.96.35 4.252.35 8.417v5.126c0 3.786-.116 7.456-.29 8.446.32-.058 1.193-.087 1.718-.087.494 0 1.019 0 1.28.058-.144-1.282-.261-4.427-.261-8.097v-.903c0-.116 0-.175.087-.175 1.281.03 3.378.059 3.99.03.146 0 .263.058.38.204 1.339 1.805 4.048 5.825 5.65 7.426 1.194 1.253 1.932 1.7 3.242 1.7.699 0 1.476-.098 1.854-.243-.553-.233-1.456-.99-2.68-2.36zM60.62 8.98c0-4.136.117-7.369.204-8.447a15.9 15.9 0 0 1-1.747.088c-.35 0-.961 0-1.224-.03.204.73.263 4.224.263 8.36v5.155c0 3.786-.088 7.456-.204 8.446.262-.029 1.106-.087 1.69-.087.465 0 1.018.03 1.28.058-.174-.845-.262-4.718-.262-8.417V8.98M27.097 13.109h-6.312c-.057 0-.085-.03-.057-.117l3.086-8.482 3.34 8.482c.028.087 0 .117-.057.117zM24.804 1.304c-.396-.962-.537-1.195-.68-1.195-.169 0-.31.35-.65 1.195l-5.605 14.311c-1.132 2.828-2.208 5.393-2.916 6.937.227-.028.935-.087 1.5-.087.595 0 .85 0 1.133.059.34-1.37 1.642-5.102 2.52-7.637.028-.058.056-.088.141-.088h7.445c.085 0 .085.03.113.088.962 2.36 2.52 6.325 2.972 7.665.34-.058 1.132-.087 1.84-.087.312 0 .793.03 1.302.059-.736-1.137-2.321-4.927-3.595-8.046a1317.78 1317.78 0 0 0-5.52-13.174zM81.308.604c-.368 0-.85 0-1.104-.058.226 3.088.283 12.526.34 17.245C78.307 15.665 68.4 3.81 65.711.924c-.566-.582-.793-.815-.906-.815-.17 0-.226.145-.226 1.719 0 5.214-.085 18.294-.312 20.712a18.778 18.778 0 0 1 1.387-.087c.397 0 .793 0 1.19.058-.227-2.301-.312-11.216-.369-17.479C69.617 8.47 77.628 18.345 79.95 20.763c1.557 1.66 2.067 2.185 2.265 2.185.17 0 .226-.233.226-2.738 0-1.311-.028-2.651-.028-5.128 0-5.913.17-12.818.312-14.566-.199.03-.906.088-1.416.088M116.057 10.53l-1.321-.849c-2.67-1.697-3.061-2.736-3.095-4.292-.04-1.897 1.41-3.227 3.532-3.21 2.33.02 3.364 1.509 3.758 2.05-.01-1.049.23-2.487.31-2.77-.324-.127-.685-.307-1.175-.474-.561-.19-1.469-.437-2.767-.472-3.877-.107-6.057 2.549-5.994 5.492.043 1.98.848 3.804 3.861 5.72l1.408.905c2.469 1.589 3.116 2.707 3.154 4.461.046 2.122-1.186 3.802-3.875 3.86-2.207.049-4.019-1.094-4.805-2.154.045.793-.094 2.268-.17 2.667.92.63 2.917 1.283 4.728 1.243 1.443-.03 3.017-.44 4.243-1.315 1.951-1.43 2.385-3.647 2.359-4.864-.046-2.122-.736-3.835-4.151-5.997M5.956 21.092c-1.656 0-2.79-.29-3.08-.581-.087-.116-.145-1.365-.145-6.39v-2.499c0-.058.029-.087.116-.116.262-.03 1.627-.03 2.557.029 1.22.058 2.44.261 3.456 1.074 1.627 1.25 1.918 2.586 1.918 3.894 0 3.166-2.353 4.59-4.822 4.59zM2.73 2.384c0-.087.029-.145.087-.174.203-.059.871-.116 1.83-.116 2.934 0 4.445 1.655 4.445 4.125 0 1.277-.582 2.672-1.772 3.456-.349.233-.581.262-1.104.262-.465 0-2.818-.029-3.37-.058-.087-.03-.116-.088-.116-.145v-7.35zm5.897 7.93c1.25-.697 2.789-2.236 2.789-4.677 0-2.149-1.22-5.12-6.159-5.12-1.452 0-2.876.153-3.95.153C.9.67.378.641 0 .612c.203 1.046.29 4.241.29 8.395v5.113c0 3.777-.091 7.274-.207 8.436.436-.029 1.253-.098 1.69-.07.668.03 2.062.204 4.066.204 5.142 0 7.554-3.195 7.554-6.536 0-3.312-2.324-5.113-4.765-5.84z" fill="#FFF"/><path d="M120.209 29.373 0 32l2.812-2.627H120.21" fill="#00953B"/><path d="M120.209 28.743 0 26.117l2.812 2.626H120.21" fill="#276092"/></g></svg>