<?xml version="1.0" encoding="utf-8"?>
<!-- Generator: Adobe Illustrator 21.1.0, SVG Export Plug-In . SVG Version: 6.00 Build 0)  -->
<svg version="1.1" id="Layer_1" xmlns="http://www.w3.org/2000/svg" xmlns:xlink="http://www.w3.org/1999/xlink" x="0px" y="0px"
	 width="528.2px" height="53.7px" viewBox="0 0 528.2 53.7" style="enable-background:new 0 0 528.2 53.7;" xml:space="preserve">
<style type="text/css">
	.st0{fill:none;stroke:#A6A6A6;stroke-width:2.178;}
	.st1{fill:#FFFFFF;}
	.st2{fill:#A6A6A6;}
</style>
<g>
	<line class="st0" x1="308.6" y1="0" x2="308.6" y2="53.7"/>
	<path class="st1" d="M19.9,12.8c0-1.8-0.1-1.9,1.6-1.9h3.9c3,0,5.1,0.4,6.3,1.4c0.8,0.6,1.2,2.6,1.4,4c0.3,0.3,1.2,0.3,1.4-0.1
		c-0.2-1.6,0.2-6.1,0.8-8.3c-0.1-0.2-0.7-0.3-1-0.2C33.5,9.1,33,9.2,30,9.2H7.8c-2.5,0-4.3,0.1-4.7-1.7c-0.2-0.2-0.9-0.1-1,0
		C1.7,9.7,0.9,13.2,0,15.7c0.2,0.4,1,0.7,1.4,0.4c0.6-1.4,1.1-2.6,2.5-3.8c1.4-1.3,4.4-1.4,6.7-1.4h3c1.6,0,1.6,0.1,1.6,1.8v24.5
		c0,5.7-0.3,6.6-3.4,6.8l-2,0.2c-0.4,0.3-0.3,1.2,0,1.4c3.5-0.1,5.4-0.2,7.6-0.2s4,0.1,7.2,0.2c0.3-0.2,0.4-1.1,0.1-1.4L22.9,44
		c-3.2-0.3-3.3-1.1-3.3-6.8V12.8H19.9z M43.2,37.2c0,5.7-0.1,6.5-3.3,6.8l-1.4,0.2c-0.3,0.4-0.2,1.2,0.1,1.4
		c2.6-0.1,4.5-0.2,6.8-0.2c2.2,0,4,0.1,6.5,0.2c0.3-0.2,0.4-1.1,0.1-1.4L50.9,44c-3.2-0.4-3.3-1.1-3.3-6.8v-6.9
		c0-1.1,0.1-1.2,2.6-1.2c2.2,0,3.1,0.5,3.9,1.8c1.7,2.5,3.9,6.2,5.4,8.3c3.9,5.5,6.7,6.9,11.3,6.9c1,0,1.9-0.1,2.4-0.3
		c0.3-0.2,0.2-0.7-0.1-0.8c-1.5-0.1-2.8-0.7-3.8-1.5c-3.7-3.1-6.6-7.5-11-14.6c-0.3-0.4-0.5-1-0.3-1.3c2.7-1.1,6.8-3.9,6.8-9.1
		c0-3.8-1.9-6.3-4.5-7.7c-2.5-1.4-5.7-1.6-9.1-1.6c-5.4,0-9.1,0.2-12.2,0.4c-0.4,0.2-0.4,1.1-0.1,1.4l1.8,0.2
		c2.2,0.3,2.4,1.2,2.4,6.4v19.6H43.2z M47.7,12.5c0-1.5,0.2-1.8,3.6-1.8c6.1,0,8.8,4.1,8.8,8.4c0,3.7-1.3,5.6-2.7,6.8
		c-1.6,1.2-3.7,1.4-5.6,1.4c-2.8,0-3.6-0.1-3.8-0.3s-0.2-0.8-0.2-1.8V12.5H47.7z M80.6,37.1c0,5.8-0.1,6.6-3.3,6.9l-1.4,0.2
		c-0.3,0.3-0.2,1.2,0.1,1.4c2.7-0.1,4.6-0.2,6.9-0.2c2.2,0,4,0.1,6.8,0.2c0.3-0.2,0.4-1.1,0.1-1.4L88.4,44c-3.2-0.4-3.3-1.1-3.3-6.9
		V17.6c0-5.8,0.1-6.7,3.3-7l1.4-0.1c0.3-0.2,0.2-1.2-0.1-1.4c-2.7,0.1-4.6,0.2-6.8,0.2c-2.3,0-4.2-0.1-6.9-0.2
		c-0.3,0.2-0.4,1.1-0.1,1.4l1.4,0.1c3.2,0.3,3.3,1.2,3.3,7V37.1L80.6,37.1z M99,37.2c0,5.7-0.1,6.5-3.3,6.8l-1.6,0.2
		c-0.3,0.3-0.2,1.2,0.1,1.4c3.1-0.1,4.8-0.2,7.1-0.2h5c5.6,0,10.8,0.1,13.6,0.2c0.8-1.5,2.3-7.1,2.3-7.7c0-0.4-1-0.6-1.4-0.3
		c-1.1,2.8-2.5,4.8-3.6,5.4c-0.9,0.5-2,0.7-6.7,0.7c-4.3,0-5.4-0.7-6-1.3c-1-1-1.1-2.5-1.1-5.9v-19c0-5.7,0.1-6.6,3.3-6.9l1.3-0.1
		c0.3-0.2,0.2-1.2-0.1-1.4c-2.7,0.1-4.6,0.2-6.7,0.2c-2.2,0-4-0.1-7.1-0.2c-0.3,0.2-0.4,1.1-0.1,1.4l1.4,0.1
		c3.4,0.3,3.6,1.1,3.6,6.9V37.2L99,37.2z M149,40.1c0.4,1.3,0.7,2.3,0.7,2.9c0,0.5-0.8,0.9-1.9,1l-1.6,0.2c-0.4,0.3-0.3,1.1,0.1,1.4
		c1.6-0.1,3.7-0.2,6.3-0.2c2.5,0,4.4,0.1,6.6,0.2c0.3-0.2,0.4-1.1,0-1.4l-1.5-0.2c-2.4-0.3-3.1-1.1-4.7-5.8l-7.5-22
		c-0.8-2.4-1.7-4.9-2.4-7.3c-0.1-0.4-0.5-0.5-0.8-0.5c-0.6,0.7-1.5,1.7-2.8,2.1c0.2,0.9-0.2,1.9-0.9,3.9L133,29.2
		c-2.3,6.1-3.8,9.7-4.8,12.2c-0.8,2-2,2.6-3.3,2.7l-1.8,0.2c-0.3,0.3-0.2,1.1,0.1,1.4c1.5-0.1,3.4-0.2,5.3-0.2
		c2.6,0.1,4.3,0.1,5.7,0.2c0.5-0.2,0.5-1.1,0.1-1.4l-1.8-0.2c-1.3-0.1-1.6-0.4-1.6-1.1c0-0.6,0.4-2.1,1.2-4.5l1.9-5.7
		c0.4-1.1,0.7-1.3,2.1-1.3h8.3c1.6,0,1.9,0.2,2.2,1.4L149,40.1L149,40.1z M139.2,18.3c0.6-1.6,1.1-3,1.3-3.2h0.1
		c0.3,0.7,0.8,2.1,1.3,3.4l3,8.9c0.5,1.5,0.4,1.7-1.2,1.7H137c-1.5,0-1.6-0.1-1.1-1.3L139.2,18.3L139.2,18.3z M196.4,23
		c0-2.5-0.1-9.3,0.8-11.3c0.2-0.4,1.3-0.9,3.1-1.1l0.8-0.1c0.3-0.3,0.3-1.1-0.1-1.4c-1.9,0.1-3.3,0.2-5.6,0.2
		c-2.1,0-3.9-0.1-6.5-0.2c-0.4,0.2-0.5,1-0.1,1.4l0.9,0.1c2.2,0.3,3.1,0.6,3.4,1.1c1,1.6,1.1,8.8,1.1,11.3v11.7c0,1.1,0,2-0.2,2.3
		h-0.1c-2.6-2.6-5.3-5.7-9-9.9l-5.3-6c-1.8-2-8.3-9.2-9.4-12c-0.7,0.1-1.6,0.2-2.5,0.2c-1,0-3.9,0-6.2-0.2c-0.4,0.2-0.4,1-0.1,1.4
		l0.9,0.1c1.3,0.2,2.6,0.5,3.4,1.3c1.1,1.3,1.2,2.4,1.2,3.9v15.8c0,2.6,0.1,9.3-0.7,11.3c-0.3,0.6-1.1,0.9-2.4,1.1l-1.5,0.2
		c-0.3,0.3-0.3,1.1,0.1,1.4c1.9-0.1,3.4-0.2,5.7-0.2c2,0,3.9,0.1,6.4,0.2c0.4-0.3,0.4-0.9,0.1-1.4l-1.7-0.2c-1.4-0.1-2.5-0.4-2.8-1
		c-0.9-1.6-1-8.8-1-11.3V19.8c0-1.6,0.1-2.9,0.3-3.6h0.1c1.1,1.2,4.9,5.7,6.3,7.4L188.5,38c4.8,5.4,6.3,7.3,7,8.3
		c0.6,0,0.9-0.3,1-0.6c-0.2-1.4-0.2-7.9-0.2-9.6V23H196.4z M223.4,12.8c0-1.8-0.1-1.9,1.6-1.9h3.9c3,0,5.1,0.4,6.3,1.4
		c0.8,0.6,1.2,2.6,1.4,4c0.3,0.3,1.2,0.3,1.4-0.1c-0.2-1.6,0.2-6.1,0.8-8.3c-0.1-0.2-0.7-0.3-1-0.2c-0.8,1.4-1.3,1.5-4.3,1.5h-22.2
		c-2.5,0-4.3,0.1-4.7-1.7c-0.2-0.2-0.9-0.1-1,0c-0.4,2.2-1.2,5.7-2.1,8.2c0.2,0.4,1,0.7,1.4,0.4c0.6-1.4,1.1-2.6,2.5-3.8
		c1.4-1.3,4.4-1.4,6.7-1.4h3c1.6,0,1.6,0.1,1.6,1.8v24.5c0,5.7-0.3,6.6-3.4,6.8l-2,0.2c-0.4,0.3-0.3,1.2,0,1.4
		c3.5-0.1,5.4-0.2,7.6-0.2s4,0.1,7.2,0.2c0.3-0.2,0.4-1.1,0.1-1.4l-1.8-0.2c-3.2-0.3-3.3-1.1-3.3-6.8V12.8H223.4z M247.1,37.1
		c0,5.8-0.1,6.6-3.3,6.9l-1.4,0.2c-0.3,0.3-0.2,1.2,0.1,1.4c2.7-0.1,4.6-0.2,6.9-0.2c2.2,0,4,0.1,6.8,0.2c0.3-0.2,0.4-1.1,0.1-1.4
		l-1.4-0.2c-3.2-0.4-3.3-1.1-3.3-6.9V17.6c0-5.8,0.1-6.7,3.3-7l1.4-0.1c0.3-0.2,0.2-1.2-0.1-1.4c-2.7,0.1-4.6,0.2-6.8,0.2
		c-2.3,0-4.2-0.1-6.9-0.2c-0.3,0.2-0.4,1.1-0.1,1.4l1.4,0.1c3.2,0.3,3.3,1.2,3.3,7V37.1L247.1,37.1z M259,27.5c0,7.1,3.4,12,7.8,15
		c4,2.7,8.7,3.7,13.6,3.7c3.5,0,7.4-0.8,8.6-1.3c0.6-0.2,1.3-0.4,1.9-0.5c0.8-1,2.2-4.7,2.6-7.5c-0.2-0.4-1-0.5-1.4-0.2
		c-1.3,3.2-4.4,7.8-11.4,7.8c-9,0-16.2-6.3-16.2-17.8c0-11.3,7.1-16.6,15.5-16.6c7.9,0,10.4,4.3,11.2,8c0.4,0.3,1.2,0.3,1.5-0.1
		c-0.4-3.3-0.7-6.8-0.8-8c-0.5,0.1-0.9-0.1-1.5-0.2c-2.6-0.7-6.7-1.3-9.7-1.3c-5.7,0-10.8,1.5-14.8,4.7
		C261.8,16.3,259,21.5,259,27.5L259,27.5z"/>
	<path class="st2" d="M329.1,37.2c0,5.7-0.3,6.6-3.4,6.8l-1.8,0.2c-0.3,0.3-0.2,1.2,0.1,1.4c3.2-0.1,5.1-0.2,7.4-0.2h4.9
		c4.9,0,9.7,0.1,14.7,0.2c0.7-1.5,2.1-5.7,2.5-7.6c-0.2-0.5-1-0.7-1.4-0.4c-1.4,2.8-2.9,4.8-3.9,5.3c-1.2,0.6-2.8,0.8-7,0.8
		c-4.8,0-6-0.6-6.6-1.3c-0.9-0.9-1-2.8-1-5.7V29c0-1.4,0.2-1.5,1.8-1.5h3.2c2.1,0,3.4,0.1,4.2,0.3c1.1,0.3,1.5,1.1,1.7,2.1L345,32
		c0.3,0.3,1.2,0.3,1.4-0.1c0-1.2-0.2-3.3-0.2-5.3c0-2.1,0.2-4.2,0.2-5.5c-0.2-0.4-1.1-0.4-1.4-0.1l-0.4,2.2
		c-0.3,1.4-0.7,1.7-1.3,1.9c-0.7,0.2-2.4,0.3-4.6,0.3h-3.2c-1.6,0-1.8,0-1.8-1.5V13.1c0-2.1,0-2.2,1.6-2.2h3.9
		c2.4,0,4.2,0.1,5.3,0.3c2.8,0.7,3.3,2.6,4.2,5.2c0.3,0.3,1.1,0.2,1.4-0.1c-0.2-2.4-0.5-6.3-0.9-7.3c-0.7,0.2-3.9,0.2-7.4,0.2h-10.3
		c-2.2,0-4.1-0.1-6.5-0.2c-0.3,0.2-0.4,1.1-0.1,1.4l0.9,0.1c3.2,0.4,3.3,1.2,3.3,6.9L329.1,37.2L329.1,37.2z M385.9,29.3
		c0,8.3-3,14.6-10.9,14.6c-8.4,0-11.1-5.8-11.1-14.6V17.5c0-5.7,0.1-6.6,3.3-6.9l1.3-0.1c0.3-0.2,0.2-1.1-0.1-1.3
		c-2.7,0.1-4.5,0.2-6.7,0.2s-4-0.1-6.8-0.2c-0.3,0.2-0.4,1.1-0.1,1.3l1.4,0.1c3.2,0.3,3.3,1.2,3.3,6.9v12.9c0,6.5,1.4,10.5,4.3,12.9
		c2.7,2.3,6.5,3,10.2,3c4,0,8.1-1.4,10.5-4c3.1-3.3,3.8-8.3,3.8-13.1V23c0-3.1,0-9.4,0.8-11.2c0.3-0.7,1.4-1.2,2.7-1.3l1.3-0.1
		c0.3-0.3,0.3-1-0.1-1.3c-2,0.1-3.4,0.2-5.7,0.2c-2.1,0-4.2-0.1-6.2-0.2c-0.3,0.2-0.4,0.9-0.1,1.3l1.4,0.1c1.4,0.1,2.4,0.5,2.7,1.1
		c0.9,1.6,1,7.9,1,11.3v6.4H385.9z M401.2,37.2c0,5.7-0.1,6.5-3.3,6.8l-1.4,0.2c-0.3,0.4-0.2,1.2,0.1,1.4c2.6-0.1,4.5-0.2,6.8-0.2
		c2.2,0,4,0.1,6.5,0.2c0.3-0.2,0.4-1.1,0.1-1.4l-1.1-0.2c-3.2-0.4-3.3-1.1-3.3-6.8v-6.9c0-1.1,0.1-1.2,2.6-1.2
		c2.2,0,3.1,0.5,3.9,1.8c1.7,2.5,3.9,6.2,5.4,8.3c3.9,5.5,6.7,6.9,11.3,6.9c1,0,1.9-0.1,2.4-0.3c0.3-0.2,0.2-0.7-0.1-0.8
		c-1.5-0.1-2.8-0.7-3.8-1.5c-3.7-3.1-6.6-7.5-11-14.6c-0.3-0.4-0.5-1-0.3-1.3c2.7-1.1,6.8-3.9,6.8-9.1c0-3.8-1.9-6.3-4.5-7.7
		c-2.5-1.4-5.7-1.6-9.1-1.6c-5.4,0-9.1,0.2-12.2,0.4c-0.4,0.2-0.4,1.1-0.1,1.4l1.8,0.2c2.2,0.3,2.4,1.2,2.4,6.4L401.2,37.2
		L401.2,37.2z M405.7,12.5c0-1.5,0.2-1.8,3.6-1.8c6.1,0,8.8,4.1,8.8,8.4c0,3.7-1.3,5.6-2.7,6.8c-1.6,1.2-3.7,1.4-5.6,1.4
		c-2.8,0-3.6-0.1-3.8-0.3c-0.2-0.2-0.2-0.8-0.2-1.8V12.5H405.7z M449.3,46.2c10.6,0,19-8,19-19.1c0-9.6-6.3-18.8-19-18.8
		c-11.3,0-19.5,8.4-19.5,19.3C429.8,37.5,437.1,46.2,449.3,46.2L449.3,46.2z M450,44.6c-10.8,0-14.7-10.5-14.7-18.6
		c0-12,7.4-15.9,13.1-15.9c10.4,0,14.4,9.7,14.4,18.8C462.8,39.6,456.6,44.6,450,44.6L450,44.6z M480.6,12.8c0-1.8,0.1-2,3-2
		c5.7,0,8.8,3.4,8.8,8.8c0,4.8-2.1,8.1-8,9.2c-0.3,0.1-0.3,0.9,0.1,1.1c2.2,0,5.1-0.5,7.6-1.6c2.4-1.1,5.5-3.7,5.5-8.7
		c0-3.8-1.9-6.6-4.4-8.2c-2.6-1.6-6-2.2-10.5-2.2s-7.9,0.1-10.8,0.4c-0.4,0.2-0.5,1-0.1,1.4l2,0.2c2.5,0.3,2.6,1.2,2.6,5.9v20.2
		c0,5.7-0.1,6.4-3.3,6.8l-1.1,0.2c-0.3,0.3-0.2,1.2,0.1,1.4c2.4-0.1,4.4-0.2,6.7-0.2c2.2,0,4,0.1,7.1,0.2c0.3-0.2,0.4-1.1,0.1-1.4
		l-1.5-0.2c-3.5-0.4-3.6-1.1-3.6-6.8V12.8H480.6z M503.8,37.2c0,5.7-0.3,6.6-3.4,6.8l-1.8,0.2c-0.3,0.3-0.2,1.2,0.1,1.4
		c3.2-0.1,5.1-0.2,7.4-0.2h4.9c4.9,0,9.7,0.1,14.7,0.2c0.7-1.5,2.1-5.7,2.5-7.6c-0.2-0.5-1-0.7-1.4-0.4c-1.4,2.8-2.9,4.8-3.9,5.3
		c-1.2,0.6-2.8,0.8-7,0.8c-4.8,0-6-0.6-6.6-1.3c-0.9-0.9-1-2.8-1-5.7V29c0-1.4,0.2-1.5,1.8-1.5h3.2c2.1,0,3.4,0.1,4.2,0.3
		c1.1,0.3,1.5,1.1,1.7,2.1l0.5,2.1c0.3,0.3,1.2,0.3,1.4-0.1c0-1.2-0.2-3.3-0.2-5.3c0-2.1,0.2-4.2,0.2-5.5c-0.2-0.4-1.1-0.4-1.4-0.1
		l-0.4,2.2c-0.3,1.4-0.7,1.7-1.3,1.9c-0.7,0.2-2.4,0.3-4.7,0.3h-3.2c-1.6,0-1.8,0-1.8-1.5V13.1c0-2.1,0-2.2,1.6-2.2h3.9
		c2.4,0,4.2,0.1,5.3,0.3c2.8,0.7,3.3,2.6,4.2,5.2c0.3,0.3,1.1,0.2,1.4-0.1c-0.2-2.4-0.5-6.3-0.9-7.3c-0.7,0.2-3.9,0.2-7.4,0.2h-10.3
		c-2.2,0-4.1-0.1-6.5-0.2c-0.3,0.2-0.4,1.1-0.1,1.4l0.9,0.1c3.2,0.4,3.3,1.2,3.3,6.9L503.8,37.2L503.8,37.2z"/>
</g>
</svg>
